G04 #@! TF.FileFunction,Soldermask,Bot*
%FSLAX46Y46*%
G04 Gerber Fmt 4.6, Leading zero omitted, Abs format (unit mm)*
G04 Created by KiCad (PCBNEW 4.0.1-stable) date 11.07.2016 15:10:56*
%MOMM*%
G01*
G04 APERTURE LIST*
%ADD10C,0.100000*%
%ADD11O,1.600000X2.400000*%
%ADD12R,2.432000X2.432000*%
%ADD13O,2.432000X2.432000*%
%ADD14C,3.900000*%
%ADD15R,2.127200X2.127200*%
%ADD16O,2.127200X2.127200*%
%ADD17R,2.127200X2.432000*%
%ADD18O,2.127200X2.432000*%
%ADD19O,2.432000X2.940000*%
%ADD20O,2.899360X2.398980*%
%ADD21O,2.398980X2.398980*%
%ADD22R,2.398980X2.398980*%
%ADD23R,1.700000X1.700000*%
%ADD24C,1.700000*%
%ADD25R,9.400000X9.900000*%
%ADD26R,9.900000X9.400000*%
%ADD27C,1.000000*%
G04 APERTURE END LIST*
D10*
D11*
X105676700Y-96125500D03*
X105676700Y-103645500D03*
X108216700Y-96125500D03*
X108216700Y-103645500D03*
X110756700Y-96125500D03*
X110756700Y-103645500D03*
X113296700Y-96125500D03*
X113296700Y-103645500D03*
X115836700Y-96125500D03*
X115836700Y-103645500D03*
X118376700Y-96125500D03*
X118376700Y-103645500D03*
X120916700Y-96125500D03*
X120916700Y-103645500D03*
X123456700Y-96125500D03*
X123456700Y-103645500D03*
X125996700Y-96125500D03*
X125996700Y-103645500D03*
X128536700Y-96125500D03*
X128536700Y-103645500D03*
X131076700Y-96125500D03*
X131076700Y-103645500D03*
X133616700Y-96125500D03*
X133616700Y-103645500D03*
X136156700Y-96125500D03*
X136156700Y-103645500D03*
X138696700Y-96125500D03*
X138696700Y-103645500D03*
D12*
X77449680Y-111480600D03*
D13*
X74909680Y-111480600D03*
D14*
X153177240Y-119039640D03*
X75636880Y-119039640D03*
X76200000Y-57000000D03*
D15*
X143200000Y-107100000D03*
D16*
X143200000Y-104560000D03*
X145740000Y-107100000D03*
X145740000Y-104560000D03*
X148280000Y-107100000D03*
X148280000Y-104560000D03*
D15*
X84455000Y-116586000D03*
D16*
X84455000Y-119126000D03*
X86995000Y-116586000D03*
X86995000Y-119126000D03*
X89535000Y-116586000D03*
X89535000Y-119126000D03*
X92075000Y-116586000D03*
X92075000Y-119126000D03*
D17*
X125984000Y-115697000D03*
D18*
X123444000Y-115697000D03*
X120904000Y-115697000D03*
X118364000Y-115697000D03*
X115824000Y-115697000D03*
X113284000Y-115697000D03*
D19*
X66940000Y-100500000D03*
X69480000Y-100500000D03*
X64400000Y-100500000D03*
D20*
X136906000Y-119788940D03*
X136906000Y-114907060D03*
D17*
X105664000Y-107188000D03*
D18*
X108204000Y-107188000D03*
X110744000Y-107188000D03*
X113284000Y-107188000D03*
X115824000Y-107188000D03*
X118364000Y-107188000D03*
X120904000Y-107188000D03*
X123444000Y-107188000D03*
X125984000Y-107188000D03*
X128524000Y-107188000D03*
X131064000Y-107188000D03*
X133604000Y-107188000D03*
X136144000Y-107188000D03*
X138684000Y-107188000D03*
D17*
X138696700Y-92481400D03*
D18*
X136156700Y-92481400D03*
X133616700Y-92481400D03*
X131076700Y-92481400D03*
X128536700Y-92481400D03*
X125996700Y-92481400D03*
X123456700Y-92481400D03*
X120916700Y-92481400D03*
X118376700Y-92481400D03*
X115836700Y-92481400D03*
X113296700Y-92481400D03*
X110756700Y-92481400D03*
X108216700Y-92481400D03*
X105676700Y-92481400D03*
D21*
X62636400Y-92036900D03*
D22*
X62636400Y-89496900D03*
D23*
X119700000Y-85200000D03*
D24*
X117200000Y-85200000D03*
D12*
X154241500Y-114858800D03*
D13*
X151701500Y-114858800D03*
D17*
X68389500Y-91973400D03*
D18*
X70929500Y-91973400D03*
X73469500Y-91973400D03*
D15*
X102793800Y-116967000D03*
D16*
X102793800Y-114427000D03*
X105333800Y-116967000D03*
X105333800Y-114427000D03*
X107873800Y-116967000D03*
X107873800Y-114427000D03*
D14*
X153000000Y-57000000D03*
D23*
X69300000Y-117000000D03*
D24*
X64300000Y-117000000D03*
D25*
X142601600Y-50075200D03*
X85401600Y-53575200D03*
X127301600Y-49975200D03*
D26*
X152924800Y-88101600D03*
X152924800Y-77101600D03*
D25*
X68298400Y-53524800D03*
D27*
X68600000Y-88400000D03*
X101800000Y-93100000D03*
X140400000Y-87500000D03*
X130500000Y-87400000D03*
X141100000Y-105500000D03*
X128209040Y-58943240D03*
X127749300Y-68884800D03*
X126000000Y-84000000D03*
X133000000Y-82800000D03*
X131800000Y-73500000D03*
X113500000Y-80700000D03*
X105100000Y-50700000D03*
X72750000Y-82000000D03*
X87116920Y-85999320D03*
X98033840Y-95976440D03*
X83708240Y-89855040D03*
X99200000Y-53100000D03*
X95700000Y-82600000D03*
X97300000Y-84300000D03*
X99200000Y-85700000D03*
X73900000Y-94600000D03*
X137600000Y-88300000D03*
X129100000Y-88700000D03*
X91300000Y-47900000D03*
X70600000Y-63700000D03*
X74228960Y-71282560D03*
X70185280Y-76108560D03*
X138400000Y-89200000D03*
X136700000Y-90200000D03*
X93900000Y-84000000D03*
X92120720Y-82087720D03*
X101500000Y-49500000D03*
X101500000Y-48200000D03*
X100076000Y-89687400D03*
X128500000Y-75100000D03*
X126339600Y-75057000D03*
X113548160Y-57388760D03*
X111760000Y-48671480D03*
M02*
