M48
;DRILL file {KiCad 4.0.1-stable} date 11.07.2016 15:10:58
;FORMAT={-:-/ absolute / inch / decimal}
FMAT,2
INCH,TZ
T1C0.016
T2C0.031
T3C0.039
T4C0.040
T5C0.043
T6C0.047
%
G90
G05
M72
T1
X2.7008Y-3.4803
X2.7632Y-2.9964
X2.7795Y-2.5079
X2.8642Y-3.2283
X2.9094Y-3.7244
X2.9224Y-2.8064
X3.2956Y-3.5376
X3.4298Y-3.3858
X3.5945Y-1.8858
X3.6268Y-3.2318
X3.6969Y-3.3071
X3.7677Y-3.252
X3.8307Y-3.3189
X3.8596Y-3.7786
X3.9055Y-2.0906
X3.9055Y-3.374
X3.94Y-3.531
X3.9961Y-1.8976
X3.9961Y-1.9488
X4.0079Y-3.6654
X4.1378Y-1.9961
X4.4Y-1.9162
X4.4685Y-3.1772
X4.4704Y-2.2594
X4.9606Y-3.3071
X4.974Y-2.955
X5.0295Y-2.712
X5.0476Y-2.3206
X5.0591Y-2.9567
X5.0827Y-3.4921
X5.1378Y-3.4409
X5.189Y-2.8937
X5.2362Y-3.2598
X5.3819Y-3.5512
X5.4173Y-3.4764
X5.4488Y-3.5118
X5.5276Y-3.4449
X5.5551Y-4.1535
T2
X2.5315Y-4.6063
X2.7283Y-4.6063
X4.1605Y-3.7845
X4.1605Y-4.0805
X4.2605Y-3.7845
X4.2605Y-4.0805
X4.3605Y-3.7845
X4.3605Y-4.0805
X4.4605Y-3.7845
X4.4605Y-4.0805
X4.5605Y-3.7845
X4.5605Y-4.0805
X4.6142Y-3.3543
X4.6605Y-3.7845
X4.6605Y-4.0805
X4.7126Y-3.3543
X4.7605Y-3.7845
X4.7605Y-4.0805
X4.8605Y-3.7845
X4.8605Y-4.0805
X4.9605Y-3.7845
X4.9605Y-4.0805
X5.0605Y-3.7845
X5.0605Y-4.0805
X5.1605Y-3.7845
X5.1605Y-4.0805
X5.2605Y-3.7845
X5.2605Y-4.0805
X5.3605Y-3.7845
X5.3605Y-4.0805
X5.4605Y-3.7845
X5.4605Y-4.0805
T3
X2.5354Y-3.9567
X2.6354Y-3.9567
X2.7354Y-3.9567
T4
X2.6925Y-3.621
X2.7925Y-3.621
X2.8925Y-3.621
X2.9492Y-4.389
X3.0492Y-4.389
X3.325Y-4.59
X3.325Y-4.69
X3.425Y-4.59
X3.425Y-4.69
X3.525Y-4.59
X3.525Y-4.69
X3.625Y-4.59
X3.625Y-4.69
X4.047Y-4.505
X4.047Y-4.605
X4.147Y-4.505
X4.147Y-4.605
X4.16Y-4.22
X4.1605Y-3.641
X4.247Y-4.505
X4.247Y-4.605
X4.26Y-4.22
X4.2605Y-3.641
X4.36Y-4.22
X4.3605Y-3.641
X4.46Y-4.22
X4.46Y-4.555
X4.4605Y-3.641
X4.56Y-4.22
X4.56Y-4.555
X4.5605Y-3.641
X4.66Y-4.22
X4.66Y-4.555
X4.6605Y-3.641
X4.76Y-4.22
X4.76Y-4.555
X4.7605Y-3.641
X4.86Y-4.22
X4.86Y-4.555
X4.8605Y-3.641
X4.96Y-4.22
X4.96Y-4.555
X4.9605Y-3.641
X5.06Y-4.22
X5.0605Y-3.641
X5.16Y-4.22
X5.1605Y-3.641
X5.26Y-4.22
X5.2605Y-3.641
X5.36Y-4.22
X5.3605Y-3.641
X5.46Y-4.22
X5.4605Y-3.641
X5.6378Y-4.1165
X5.6378Y-4.2165
X5.7378Y-4.1165
X5.7378Y-4.2165
X5.8378Y-4.1165
X5.8378Y-4.2165
X5.9725Y-4.522
X6.0725Y-4.522
T5
X2.466Y-3.5235
X2.466Y-3.6235
T6
X5.39Y-4.5239
X5.39Y-4.7161
T0
M30
